PathFileType	4	(X/Y/Z)	C:/Users/opensim2020/Desktop/walking_exp_matlab/subject02_walking05_straight_01.trc																																																																																																																												
DataRate	CameraRate	NumFrames	NumMarkers	Units	OrigDataRate	OrigDataStartFrame	OrigNumFrames																																																																																																																								
100	100	8	42	mm	100	650	190																																																																																																																								
Frame#	Time	LFHD			RFHD			LBHD			RBHD			C7			T10			CLAV			STRN			RBAK			LSHO			LUPA			LELB			LFRM			LWRA			LWRB			LFIN			RSHO			RUPA			RELB			RFRM			RWRA			RWRB			RFIN			LASI			RASI			LPSI			RPSI			LTHI			LKNE			LTIB			LANK			LHEE			LTOE			RTHI			RKNE			RTIB			RANK			RHEE			RTOE			*39			*40			*41		
		X1	Y1	Z1	X2	Y2	Z2	X3	Y3	Z3	X4	Y4	Z4	X5	Y5	Z5	X6	Y6	Z6	X7	Y7	Z7	X8	Y8	Z8	X9	Y9	Z9	X10	Y10	Z10	X11	Y11	Z11	X12	Y12	Z12	X13	Y13	Z13	X14	Y14	Z14	X15	Y15	Z15	X16	Y16	Z16	X17	Y17	Z17	X18	Y18	Z18	X19	Y19	Z19	X20	Y20	Z20	X21	Y21	Z21	X22	Y22	Z22	X23	Y23	Z23	X24	Y24	Z24	X25	Y25	Z25	X26	Y26	Z26	X27	Y27	Z27	X28	Y28	Z28	X29	Y29	Z29	X30	Y30	Z30	X31	Y31	Z31	X32	Y32	Z32	X33	Y33	Z33	X34	Y34	Z34	X35	Y35	Z35	X36	Y36	Z36	X37	Y37	Z37	X38	Y38	Z38	X39	Y39	Z39	X40	Y40	Z40	X41	Y41	Z41	X42	Y42	Z42
																																																																																																																															
1	0	-1098.96777	1746.83276	-1021.51917	-1102.66785	1717.18628	-877.25378	-1224.13574	1668.59497	-1038.57532	-1242.65332	1636.45691	-899.17993	-1279.83215	1530.29626	-963.69257	-1348.95349	1259.0918	-947.84015	-1147.62854	1454.78394	-991.78046	-1106.39978	1278.91199	-992.97473	-1336.86719	1361.67773	-889.4433	-1231.45264	1504.73889	-1151.82849	-1254.95715	1310.1748	-1243.21448	-1258.01636	1170.17847	-1270.4425	-1224.77344	1041.97681	-1291.92188	-1138.99194	934.91461	-1276.93335	-1189.10535	923.92963	-1299.25549	-1153.12146	869.35028	-1310.92407	-1173.99475	1488.94324	-791.53442	-1192.69971	1301.16248	-697.6416	-1180.29736	1155.50977	-680.64111	-1149.92944	1039.16321	-663.44489	-1104.28613	912.27014	-685.13977	-1146.54626	909.62836	-646.40356	-1108.28589	847.56964	-647.08649	-1154.00806	995.21783	-1120.38818	-1110.56262	973.87433	-869.14789	-1345.4718	1038.17419	-1007.05743	-1331.08228	1036.21912	-892.90332	-1167.44434	689.64331	-1192.39307	-1143.19373	497.41397	-1174.51001	-1240.49524	335.49725	-1152.77258	-1285.42334	116.72566	-1120.66992	-1306.7146	93.50871	-1059.62622	-1159.34082	47.48203	-1176.56836	-1180.62427	666.47156	-806.42487	-1195.15759	458.08673	-853.85828	-1244.6416	275.20374	-845.24445	-1280.55054	85.29059	-881.83618	-1326.36926	31.4937	-932.26965	-1129.39136	31.96502	-891.65582	-1203.58752	1801.58911	-927.45233	2845.27808	1033.72168	-3360.23511	NaN	NaN	NaN
2	0.01	-1092.26526	1746.38501	-1022.99213	-1095.62073	1717.43921	-878.65338	-1218.09717	1668.78149	-1039.50037	-1236.2135	1637.30701	-899.83173	-1273.55798	1530.30103	-963.77087	-1342.53687	1259.01257	-947.71655	-1141.50684	1454.80933	-991.98138	-1099.94812	1279.0415	-992.67139	-1330.38037	1361.77197	-889.05768	-1225.58008	1504.2439	-1151.98096	-1249.45813	1309.65491	-1242.84351	-1252.65637	1169.66833	-1270.02905	-1218.5874	1041.59558	-1291.78687	-1131.36865	935.57495	-1277.66541	-1182.03076	923.91119	-1299.10596	-1145.00049	869.55792	-1311.34863	-1167.32544	1489.22217	-791.7478	-1183.45789	1301.38745	-697.55426	-1169.33899	1155.75476	-680.70428	-1137.24451	1039.96667	-663.86957	-1090.59509	913.42108	-686.07764	-1132.55835	910.33044	-646.98523	-1093.49719	848.65887	-648.04626	-1146.8241	995.17047	-1120.34985	-1104.53564	973.20239	-868.72052	-1338.76062	1038.10022	-1007.28638	-1324.65027	1036.21704	-893.00848	-1157.66272	691.01379	-1192.93921	-1131.58301	498.24359	-1174.92529	-1222.22607	331.60104	-1155.00623	-1257.68384	110.71748	-1125.12268	-1278.52075	86.62865	-1064.30457	-1128.24097	47.1157	-1180.73169	-1177.07202	666.03693	-806.47711	-1193.3457	457.68292	-853.91138	-1243.78442	275.16769	-845.25397	-1280.69275	85.41541	-882.09076	-1326.39954	31.55057	-932.43829	-1129.24658	31.8043	-891.7453	-1196.38208	1801.92859	-928.92621	2845.87842	1033.86145	-3357.35864	NaN	NaN	NaN
3	0.02	-1085.62073	1745.82898	-1024.79309	-1088.6676	1717.64014	-880.09399	-1211.61011	1668.51453	-1040.37048	-1229.16235	1637.83032	-900.51807	-1267.29089	1530.19824	-963.92468	-1336.09998	1258.8363	-947.75928	-1135.17212	1454.56921	-992.12488	-1093.36743	1279.00024	-992.42719	-1323.91724	1361.74573	-888.90851	-1219.73328	1503.55798	-1152.03564	-1243.90491	1308.99158	-1242.47742	-1247.30042	1169.04688	-1269.57861	-1212.40759	1040.99463	-1291.50476	-1124.16357	936.16699	-1278.86609	-1175.06848	923.57642	-1298.93005	-1137.68567	869.8186	-1311.81128	-1160.74646	1489.74548	-791.97595	-1174.45239	1301.41443	-697.70508	-1158.25549	1155.95081	-680.9538	-1125.04126	1040.51318	-664.20386	-1076.86414	914.65625	-687.41882	-1118.40515	911.04346	-647.73999	-1078.63635	849.82343	-649.19934	-1139.5708	995.04071	-1120.44543	-1098.41467	972.50928	-868.35242	-1332.05762	1037.97522	-1007.61554	-1318.20911	1036.0531	-893.32916	-1148.14539	692.24652	-1193.7533	-1120.06042	498.61649	-1175.19263	-1203.8689	327.64307	-1157.49023	-1229.6792	105.18037	-1129.79272	-1249.94995	80.04903	-1069.33069	-1097.03711	47.13675	-1184.76526	-1173.81836	665.81982	-806.44873	-1191.20068	457.17966	-853.96423	-1242.70654	275.10153	-845.14337	-1280.84253	85.5217	-882.20782	-1326.43384	31.62156	-932.63593	-1129.41479	31.82757	-891.66095	-1189.26245	1802.18445	-930.61267	2845.10742	1034.0094	-3360.21118	NaN	NaN	NaN
4	0.03	-1078.90112	1745.22058	-1026.38684	-1081.58545	1717.68799	-881.77917	-1205.1969	1668.11218	-1041.36755	-1222.9408	1638.30273	-901.24603	-1260.84607	1530.01172	-964.25311	-1329.55701	1258.55701	-948.00366	-1128.79187	1454.3783	-992.40808	-1086.80334	1278.82947	-992.24438	-1317.37048	1361.62952	-888.97607	-1213.78308	1502.86572	-1152.14209	-1238.27417	1308.18579	-1242.0741	-1241.82605	1168.28369	-1269.16101	-1206.49512	1040.45581	-1291.28796	-1117.29456	936.26392	-1279.48853	-1168.29297	922.88214	-1298.77332	-1130.82507	869.85687	-1312.27527	-1153.99292	1489.93665	-792.37915	-1166.04077	1301.47876	-697.84644	-1147.36707	1156.07776	-681.38751	-1112.72205	1041.16431	-664.77069	-1063.09058	915.75549	-688.68573	-1104.25415	911.69775	-648.70673	-1063.68567	850.9917	-650.54053	-1132.41113	994.79047	-1120.59094	-1092.33813	971.87836	-868.00745	-1325.22437	1037.66138	-1008.09662	-1311.86511	1035.78064	-893.72998	-1138.99487	692.87976	-1194.10449	-1108.95044	498.97723	-1175.63574	-1185.46741	323.80844	-1160.1969	-1201.52368	100.10768	-1134.73877	-1221.31909	74.05501	-1074.59631	-1065.89014	47.74759	-1188.66211	-1170.03589	665.22028	-806.30023	-1189.59204	457.01984	-853.87036	-1241.72424	275.07401	-845.06512	-1280.79663	85.59576	-882.35101	-1326.44629	31.70332	-932.82233	-1129.33789	31.7146	-891.4895	-1182.19739	1802.31616	-932.29547	2845.2146	1033.77393	-3360.14453	NaN	NaN	NaN
5	0.04	-1072.14111	1744.49243	-1027.99109	-1074.61047	1717.79968	-883.26514	-1198.36584	1667.32117	-1042.36145	-1215.96204	1638.50952	-902.07599	-1254.31177	1529.68567	-964.6355	-1323.03516	1258.20862	-948.40179	-1122.15417	1454.08765	-992.65295	-1080.10022	1278.5542	-992.1142	-1310.69324	1361.16406	-889.2168	-1207.46814	1502.12036	-1152.51733	-1232.474	1307.11169	-1241.86487	-1236.44348	1167.39612	-1268.75476	-1200.53796	1039.5592	-1291.13928	-1110.83154	936.07184	-1280.52527	-1161.92432	922.19012	-1298.80005	-1124.23108	869.396	-1312.83447	-1147.76428	1490.14758	-792.80157	-1156.60303	1301.32898	-698.51666	-1136.3324	1156.1554	-681.95367	-1099.8269	1041.49243	-666.67108	-1049.16711	917.03778	-689.90265	-1090.02649	912.29303	-649.88434	-1048.78894	852.23004	-652.04749	-1125.01733	994.50421	-1120.88269	-1086.26831	971.29199	-867.76904	-1318.56567	1037.34448	-1008.68341	-1305.51489	1035.3269	-894.37433	-1130.15063	693.45758	-1194.65051	-1098.20593	499.22073	-1176.2417	-1166.99622	320.13611	-1163.19226	-1173.38916	95.69825	-1139.90112	-1192.6947	68.35863	-1080.14319	-1034.92725	49.02837	-1192.12427	-1166.50305	664.7373	-806.32098	-1186.99683	456.50781	-853.85449	-1240.83362	275.08649	-845.00067	-1280.47192	85.65589	-882.5415	-1326.47791	31.76971	-933.02002	-1129.50464	31.67733	-891.37177	-1175.29089	1802.18604	-934.19177	2845.66309	1033.83728	-3357.43628	NaN	NaN	NaN
6	0.05	-1065.04175	1743.23279	-1029.46729	-1067.62036	1717.7948	-884.95319	-1191.98706	1666.87561	-1043.52173	-1209.32788	1638.6825	-903.06488	-1247.8313	1529.29504	-965.15674	-1316.5	1257.76746	-948.98877	-1115.43945	1453.6261	-992.97943	-1073.30054	1278.16138	-992.052	-1304.15564	1360.99548	-889.60248	-1201.078	1501.29065	-1152.99963	-1226.80542	1306.21716	-1241.42944	-1230.9408	1166.50757	-1268.32971	-1194.93884	1038.69641	-1291.07947	-1104.73792	935.49335	-1280.97937	-1156.23547	921.73846	-1298.88342	-1118.28369	868.78003	-1313.21924	-1140.81458	1490.06018	-793.26312	-1147.56177	1300.96912	-699.18396	-1125.4353	1156.1687	-682.63721	-1088.07336	1042.33081	-667.32904	-1035.40271	918.26385	-692.49188	-1075.96973	913.03046	-651.22931	-1034.10645	853.58826	-653.69781	-1117.55042	994.18866	-1121.26221	-1080.14368	970.76599	-867.55859	-1311.6571	1036.81421	-1009.39838	-1299.32385	1034.82849	-895.12738	-1121.47937	693.64142	-1195.21423	-1087.34863	499.03851	-1176.50244	-1148.40112	316.68784	-1166.44629	-1145.28479	91.89245	-1145.19592	-1164.53064	63.77688	-1085.95215	-1003.79626	51.11167	-1195.5957	-1162.71826	664.14789	-806.29474	-1185.44958	456.03842	-853.86469	-1239.86218	275.01123	-844.93384	-1280.61768	85.71279	-882.64575	-1325.83911	31.23635	-933.39465	-1129.56458	31.6123	-891.18896	-1167.84619	1801.80859	-935.67792	2845.69067	1034.11548	-3357.33301	NaN	NaN	NaN
7	0.06	-1058.54736	1742.52612	-1031.61548	-1060.52478	1717.57874	-886.78589	-1185.15271	1665.85461	-1044.64709	-1202.41992	1638.65637	-904.05511	-1240.92139	1528.63818	-965.82819	-1309.81238	1257.22412	-949.71136	-1108.73376	1453.12219	-993.42029	-1066.54333	1277.60291	-991.96393	-1297.4425	1360.34412	-890.12891	-1194.44153	1500.328	-1153.48022	-1220.88916	1304.98206	-1241.39014	-1225.37598	1165.45605	-1268.03442	-1189.5675	1037.71558	-1291.15002	-1098.98828	934.40918	-1281.58911	-1150.40723	920.29364	-1299.05664	-1112.71948	867.73871	-1313.70374	-1134.12708	1489.97876	-793.79889	-1139.09766	1300.68225	-699.88379	-1114.63306	1156.21033	-683.53577	-1074.94739	1042.60583	-669.04456	-1021.63513	919.43109	-693.58496	-1061.77332	913.59357	-652.81744	-1018.90698	854.71771	-655.55084	-1109.91821	993.89362	-1121.54187	-1074.07971	970.22162	-867.28528	-1304.63708	1036.22168	-1010.27075	-1292.94666	1033.98889	-896.13812	-1113.14063	693.57019	-1195.8645	-1076.74133	498.75992	-1176.78418	-1129.84741	313.63635	-1169.83105	-1117.40613	88.86848	-1150.54639	-1135.89941	59.59681	-1091.64246	-973.53113	53.97871	-1198.97412	-1159.16467	663.71198	-806.36163	-1182.86584	455.84354	-853.8006	-1238.75073	274.98672	-844.87292	-1280.34583	85.82369	-882.77264	-1325.85962	31.35902	-933.59692	-1129.46497	31.50462	-891.05212	-1161.20154	1801.81226	-937.9519	2845.25146	1033.75916	-3360.31982	NaN	NaN	NaN
8	0.07	-1051.80237	1741.87573	-1033.55957	-1053.53198	1717.40198	-888.3186	-1178.57825	1665.19727	-1045.95667	-1195.50183	1638.37744	-905.12323	-1234.37866	1528.13684	-966.53693	-1303.25671	1256.60388	-950.71564	-1102.50061	1451.99048	-994.4071	-1059.61792	1277.02026	-992.05939	-1290.7417	1359.80591	-890.78955	-1187.84167	1499.50317	-1154.18604	-1215.00073	1303.92773	-1241.2832	-1220.20789	1164.5769	-1268.01123	-1184.23877	1036.50903	-1291.09045	-1093.73889	933.17468	-1282.21277	-1145.31604	918.99908	-1299.33875	-1107.70264	866.40051	-1314.20276	-1127.52698	1489.80676	-794.47217	-1130.1864	1300.43738	-700.67548	-1104.20911	1156.02527	-684.57373	-1062.94629	1043.17102	-670.2868	-1008.11676	920.742	-696.29315	-1047.86206	914.30835	-654.54327	-1004.02484	856.0238	-657.59302	-1102.17261	993.42212	-1121.71069	-1067.62476	969.89343	-866.84076	-1297.57068	1035.4967	-1011.33368	-1287.02161	1033.39783	-897.11566	-1105.03979	693.26166	-1196.43335	-1066.29297	498.4444	-1177.12366	-1111.45923	311.00302	-1173.15039	-1089.93958	86.64342	-1156.02051	-1108.14429	56.25085	-1097.52222	-943.65485	57.32667	-1202.39917	-1155.3999	663.23505	-806.44464	-1179.79688	455.14777	-853.94781	-1237.52319	274.97833	-844.90125	-1280.42432	86.02338	-882.89435	-1325.79846	31.2043	-933.76642	-1129.62573	31.47978	-890.90546	-1154.04187	1801.48132	-939.84192	2845.27759	1033.7312	-3360.23462	NaN	NaN	NaN
